<svg width="224" height="65" viewBox="0 0 224 65" fill="none" xmlns="http://www.w3.org/2000/svg">
<g clip-path="url(#clip0_2200_261)">
<rect width="64.3294" height="64.3294" rx="32.1647" fill="#5A3FF5"/>
<path d="M7.15219 20.271H12.1956L6.74048 45.7969H-2.05978L-5.45637 25.1085H-6.17686L-9.52199 45.7969H-18.3223L-23.7774 20.271H-18.734L-14.3081 40.9593H-13.7935L-10.3969 20.271H-1.1849L2.21169 40.9593H2.72632L7.15219 20.271ZM43.6149 20.271H48.6583L43.2032 45.7969H34.4029L31.0063 25.1085H30.2858L26.9407 45.7969H18.1404L12.6853 20.271H17.7287L22.1546 40.9593H22.6692L26.0658 20.271H35.2778L38.6744 40.9593H39.189L43.6149 20.271ZM80.0776 20.271H85.121L79.6659 45.7969H70.8656L67.469 25.1085H66.7485L63.4034 45.7969H54.6031L49.148 20.271H54.1914L58.6173 40.9593H59.1319L62.5285 20.271H71.7405L75.1371 40.9593H75.6517L80.0776 20.271Z" fill="#F9F9F8"/>
</g>
<path d="M79.2176 27.8656C75.4431 27.8656 72.9329 25.1538 72.9329 21.0495C72.9329 16.9635 75.5164 14.1968 79.3092 14.1968C82.2959 14.1968 84.5862 15.9741 85.0809 18.6859H83.157C82.6623 16.9635 81.1782 15.9191 79.2543 15.9191C76.5791 15.9191 74.8201 17.9346 74.8201 21.0312C74.8201 24.1278 76.5791 26.1433 79.2543 26.1433C81.1965 26.1433 82.7356 25.0989 83.2303 23.4681H85.1359C84.5679 26.1066 82.2042 27.8656 79.2176 27.8656ZM91.442 18.6309V20.2067H90.6724C89.0417 20.2067 88.0339 21.1961 88.0339 22.9184V27.6641H86.3116V18.7225H87.924L88.0339 20.0784C88.4004 19.1439 89.2982 18.521 90.5258 18.521C90.8373 18.521 91.0938 18.5576 91.442 18.6309ZM95.8685 27.8839C93.23 27.8839 91.4161 25.9784 91.4161 23.1933C91.4161 20.3899 93.1934 18.4477 95.7952 18.4477C98.3421 18.4477 100.009 20.2067 100.009 22.8635V23.5048L93.0834 23.5231C93.2117 25.4104 94.2011 26.4548 95.9052 26.4548C97.2427 26.4548 98.1222 25.9051 98.4154 24.879H100.028C99.5881 26.8029 98.0856 27.8839 95.8685 27.8839ZM95.7952 19.8952C94.2927 19.8952 93.34 20.793 93.1201 22.3688H98.2871C98.2871 20.8846 97.316 19.8952 95.7952 19.8952ZM103.731 27.8839C101.807 27.8839 100.671 26.8029 100.671 25.1722C100.671 23.5231 101.899 22.497 104.006 22.3321L106.828 22.1122V21.8557C106.828 20.3532 105.93 19.8219 104.72 19.8219C103.273 19.8219 102.448 20.4632 102.448 21.5442H100.946C100.946 19.6753 102.485 18.4477 104.794 18.4477C107.011 18.4477 108.513 19.6203 108.513 22.0389V27.6641H107.047L106.864 26.2166C106.406 27.2426 105.179 27.8839 103.731 27.8839ZM104.226 26.5464C105.856 26.5464 106.846 25.4836 106.846 23.7979V23.3215L104.556 23.5048C103.035 23.6514 102.412 24.2377 102.412 25.1172C102.412 26.07 103.108 26.5464 104.226 26.5464ZM112.551 27.6641H110.829V20.1517H109.07V18.7042H110.829V15.9008H112.551V18.7042H114.31V20.1517H112.551V27.6641ZM115.966 16.5787C115.343 16.5787 114.83 16.0657 114.83 15.4427C114.83 14.8014 115.343 14.3067 115.966 14.3067C116.589 14.3067 117.102 14.8014 117.102 15.4427C117.102 16.0657 116.589 16.5787 115.966 16.5787ZM115.123 27.6641V18.7042H116.845V27.6641H115.123ZM121.123 27.6641L117.513 18.7042H119.346L121.306 23.7063C121.618 24.5492 121.874 25.3004 122.021 25.8501C122.167 25.2638 122.461 24.4942 122.772 23.7063L124.769 18.7042H126.565L122.827 27.6641H121.123ZM130.657 27.8839C128.018 27.8839 126.204 25.9784 126.204 23.1933C126.204 20.3899 127.982 18.4477 130.584 18.4477C133.13 18.4477 134.798 20.2067 134.798 22.8635V23.5048L127.872 23.5231C128 25.4104 128.99 26.4548 130.694 26.4548C132.031 26.4548 132.911 25.9051 133.204 24.879H134.816C134.376 26.8029 132.874 27.8839 130.657 27.8839ZM130.584 19.8952C129.081 19.8952 128.128 20.793 127.908 22.3688H133.076C133.076 20.8846 132.104 19.8952 130.584 19.8952ZM138.018 26.9495C138.018 28.2687 137.028 29.3681 135.727 29.533V28.7634C136.478 28.6352 137.01 28.1405 137.01 27.5724C136.882 27.6457 136.735 27.6824 136.515 27.6824C135.91 27.6824 135.397 27.2426 135.397 26.5647C135.397 25.8318 135.892 25.3004 136.625 25.3004C137.395 25.3004 138.018 25.9417 138.018 26.9495ZM144.885 27.6641H143.016L147.853 14.4166H149.851L154.706 27.6641H152.819L151.628 24.3659H146.058L144.885 27.6641ZM148.623 17.275L146.607 22.8085H151.096L149.063 17.275C148.971 17.0185 148.879 16.707 148.843 16.5054C148.806 16.6887 148.714 17.0002 148.623 17.275ZM157.809 27.6641H156.086V20.1517H154.327V18.7042H156.086V15.9008H157.809V18.7042H159.567V20.1517H157.809V27.6641ZM163.07 27.6641H161.348V20.1517H159.589V18.7042H161.348V15.9008H163.07V18.7042H164.829V20.1517H163.07V27.6641ZM170.772 18.6309V20.2067H170.003C168.372 20.2067 167.364 21.1961 167.364 22.9184V27.6641H165.642V18.7225H167.254L167.364 20.0784C167.73 19.1439 168.628 18.521 169.856 18.521C170.167 18.521 170.424 18.5576 170.772 18.6309ZM173.917 27.8839C171.993 27.8839 170.857 26.8029 170.857 25.1722C170.857 23.5231 172.085 22.497 174.192 22.3321L177.013 22.1122V21.8557C177.013 20.3532 176.116 19.8219 174.906 19.8219C173.459 19.8219 172.634 20.4632 172.634 21.5442H171.132C171.132 19.6753 172.671 18.4477 174.98 18.4477C177.197 18.4477 178.699 19.6203 178.699 22.0389V27.6641H177.233L177.05 26.2166C176.592 27.2426 175.364 27.8839 173.917 27.8839ZM174.412 26.5464C176.042 26.5464 177.032 25.4836 177.032 23.7979V23.3215L174.741 23.5048C173.221 23.6514 172.598 24.2377 172.598 25.1172C172.598 26.07 173.294 26.5464 174.412 26.5464ZM179.765 23.1933C179.765 20.3899 181.542 18.4477 184.163 18.4477C186.416 18.4477 187.992 19.7303 188.304 21.7275H186.581C186.288 20.5914 185.372 19.9868 184.218 19.9868C182.587 19.9868 181.469 21.2327 181.469 23.175C181.469 25.0989 182.514 26.3448 184.144 26.3448C185.372 26.3448 186.288 25.7035 186.6 24.6408H188.322C187.974 26.583 186.306 27.8839 184.144 27.8839C181.506 27.8839 179.765 26.015 179.765 23.1933ZM191.935 27.6641H190.212V20.1517H188.453V18.7042H190.212V15.9008H191.935V18.7042H193.694V20.1517H191.935V27.6641ZM195.349 16.5787C194.726 16.5787 194.213 16.0657 194.213 15.4427C194.213 14.8014 194.726 14.3067 195.349 14.3067C195.972 14.3067 196.485 14.8014 196.485 15.4427C196.485 16.0657 195.972 16.5787 195.349 16.5787ZM194.507 27.6641V18.7042H196.229V27.6641H194.507ZM200.507 27.6641L196.897 18.7042H198.729L200.69 23.7063C201.001 24.5492 201.258 25.3004 201.405 25.8501C201.551 25.2638 201.844 24.4942 202.156 23.7063L204.153 18.7042H205.949L202.211 27.6641H200.507ZM210.041 27.8839C207.402 27.8839 205.588 25.9784 205.588 23.1933C205.588 20.3899 207.366 18.4477 209.967 18.4477C212.514 18.4477 214.182 20.2067 214.182 22.8635V23.5048L207.256 23.5231C207.384 25.4104 208.373 26.4548 210.077 26.4548C211.415 26.4548 212.294 25.9051 212.588 24.879H214.2C213.76 26.8029 212.258 27.8839 210.041 27.8839ZM209.967 19.8952C208.465 19.8952 207.512 20.793 207.292 22.3688H212.459C212.459 20.8846 211.488 19.8952 209.967 19.8952ZM217.401 26.9495C217.401 28.2687 216.412 29.3681 215.111 29.533V28.7634C215.862 28.6352 216.394 28.1405 216.394 27.5724C216.265 27.6457 216.119 27.6824 215.899 27.6824C215.294 27.6824 214.781 27.2426 214.781 26.5647C214.781 25.8318 215.276 25.3004 216.009 25.3004C216.778 25.3004 217.401 25.9417 217.401 26.9495ZM75.5164 36.4166V49.6641H73.7208V36.4166H75.5164ZM79.3019 49.6641H77.5796V40.7042H79.137L79.3203 42.0784C79.8883 41.0523 81.0243 40.4477 82.2886 40.4477C84.6522 40.4477 85.7333 41.8952 85.7333 44.1855V49.6641H84.0109V44.5703C84.0109 42.7563 83.1681 42.0234 81.8488 42.0234C80.2364 42.0234 79.3019 43.1778 79.3019 44.9184V49.6641ZM89.9144 49.6641H88.1921V42.1517H86.4331V40.7042H88.1921V37.9008H89.9144V40.7042H91.6734V42.1517H89.9144V49.6641ZM98.6794 40.7042H100.383V49.6641H98.8443L98.661 48.3082C98.148 49.2426 96.957 49.8839 95.6378 49.8839C93.549 49.8839 92.3763 48.4731 92.3763 46.2743V40.7042H94.0986V45.7063C94.0986 47.6302 94.9232 48.3631 96.2424 48.3631C97.8182 48.3631 98.6794 47.3554 98.6794 45.4315V40.7042ZM102.992 38.5787C102.369 38.5787 101.856 38.0657 101.856 37.4427C101.856 36.8014 102.369 36.3067 102.992 36.3067C103.615 36.3067 104.128 36.8014 104.128 37.4427C104.128 38.0657 103.615 38.5787 102.992 38.5787ZM102.149 49.6641V40.7042H103.872V49.6641H102.149ZM108.168 49.6641H106.446V42.1517H104.687V40.7042H106.446V37.9008H108.168V40.7042H109.927V42.1517H108.168V49.6641ZM111.583 38.5787C110.96 38.5787 110.446 38.0657 110.446 37.4427C110.446 36.8014 110.96 36.3067 111.583 36.3067C112.205 36.3067 112.719 36.8014 112.719 37.4427C112.719 38.0657 112.205 38.5787 111.583 38.5787ZM110.74 49.6641V40.7042H112.462V49.6641H110.74ZM116.74 49.6641L113.13 40.7042H114.963L116.923 45.7063C117.235 46.5492 117.491 47.3004 117.638 47.8501C117.784 47.2638 118.077 46.4942 118.389 45.7063L120.386 40.7042H122.182L118.444 49.6641H116.74ZM126.274 49.8839C123.635 49.8839 121.821 47.9784 121.821 45.1933C121.821 42.3899 123.599 40.4477 126.2 40.4477C128.747 40.4477 130.415 42.2067 130.415 44.8635V45.5048L123.489 45.5231C123.617 47.4104 124.606 48.4548 126.31 48.4548C127.648 48.4548 128.527 47.9051 128.821 46.879H130.433C129.993 48.8029 128.491 49.8839 126.274 49.8839ZM126.2 41.8952C124.698 41.8952 123.745 42.793 123.525 44.3688H128.692C128.692 42.8846 127.721 41.8952 126.2 41.8952ZM142.131 49.9206C138.32 49.9206 135.37 46.8973 135.37 43.0312C135.37 39.1834 138.338 36.1784 142.131 36.1784C145.942 36.1784 148.91 39.1834 148.91 43.0312C148.91 46.8973 145.942 49.9206 142.131 49.9206ZM142.131 48.8029C145.319 48.8029 147.719 46.311 147.719 43.0312C147.719 39.7697 145.301 37.2961 142.131 37.2961C138.979 37.2961 136.561 39.788 136.561 43.0312C136.561 46.311 138.961 48.8029 142.131 48.8029ZM138.741 43.0678C138.741 40.9057 140.189 39.3849 142.222 39.3849C143.945 39.3849 145.172 40.3561 145.429 41.9135H144.018C143.798 41.0706 143.194 40.6309 142.259 40.6309C140.995 40.6309 140.115 41.6203 140.115 43.0495C140.115 44.497 140.958 45.4681 142.204 45.4681C143.157 45.4681 143.798 45.0101 144.036 44.1855H145.429C145.172 45.688 143.872 46.6958 142.204 46.6958C140.134 46.6958 138.741 45.2299 138.741 43.0678ZM158.701 49.6457L149.759 49.6641V48.2898L154.029 44.607C156.172 42.7563 156.777 41.8585 156.777 40.4477C156.777 38.7803 155.824 37.7909 154.23 37.7909C152.599 37.7909 151.537 38.9818 151.5 40.8691H149.704C149.759 38.029 151.555 36.1784 154.248 36.1784C156.905 36.1784 158.609 37.7909 158.609 40.3377C158.609 42.225 157.675 43.5626 155.329 45.5964L152.581 47.9784H158.701V49.6457ZM159.621 43.0495C159.621 38.9452 161.746 36.1601 165.081 36.1601C168.397 36.1601 170.523 38.9452 170.523 43.0495C170.523 47.1722 168.489 49.9023 165.081 49.9023C161.654 49.9023 159.621 47.1722 159.621 43.0495ZM161.398 43.0495C161.398 46.311 162.754 48.2898 165.081 48.2898C167.408 48.2898 168.745 46.311 168.745 43.0495C168.745 39.7514 167.408 37.7725 165.081 37.7725C162.754 37.7725 161.398 39.7514 161.398 43.0495ZM180.479 49.6457L171.537 49.6641V48.2898L175.806 44.607C177.95 42.7563 178.555 41.8585 178.555 40.4477C178.555 38.7803 177.602 37.7909 176.008 37.7909C174.377 37.7909 173.314 38.9818 173.278 40.8691H171.482C171.537 38.029 173.333 36.1784 176.026 36.1784C178.683 36.1784 180.387 37.7909 180.387 40.3377C180.387 42.225 179.453 43.5626 177.107 45.5964L174.359 47.9784H180.479V49.6457ZM190.356 49.6457L181.415 49.6641V48.2898L185.684 44.607C187.828 42.7563 188.433 41.8585 188.433 40.4477C188.433 38.7803 187.48 37.7909 185.886 37.7909C184.255 37.7909 183.192 38.9818 183.156 40.8691H181.36C181.415 38.029 183.211 36.1784 185.904 36.1784C188.561 36.1784 190.265 37.7909 190.265 40.3377C190.265 42.225 189.33 43.5626 186.985 45.5964L184.237 47.9784H190.356V49.6457Z" fill="white"/>
<defs>
<clipPath id="clip0_2200_261">
<rect width="64.3294" height="64.3294" rx="32.1647" fill="white"/>
</clipPath>
</defs>
</svg>
